#!OML:ASF F:\VICON\USERDATA\INSTALL\SteveWalk\SteveWalk.ASF
:FULLY-SPECIFIED
:DEGREES
385
root 0.623185 16.178 38.0519 17.0544 5.20337 -1.21155
lowerback -15.5075 -0.470248 1.10186
upperback -5.87551 -0.856379 2.44527
thorax 2.48559 -0.408393 1.79279
lowerneck -4.55148 -0.822984 -1.2808
upperneck 10.2219 -0.883938 -1.0827
head 4.1591 -0.535791 -0.179224
rclavicle 2.60905e-015 2.78299e-014
rhumerus -48.7605 -38.3534 -53.8156
rradius 14.1409
rwrist 26.0041
rhand -18.7814 -35.2868
rfingers 7.12502
rthumb 7.51619 -425.133
lclavicle 2.60905e-015 2.78299e-014
lhumerus -34.4092 1.88626 87.7084
lradius 28.752
lwrist 3.16989
lhand -22.2821 -18.5382
lfingers 7.12502
lthumb 4.13633 11.4014
rfemur -32.8265 -2.60877 26.8417
rtibia 36.2069
rfoot -20.1419 2.46671
rtoes -5.21495
lfemur -36.5153 2.5162 -17.9907
ltibia 74.4032
lfoot -0.720193 0.0165668
ltoes -5.66629
386
root 0.621619 16.1772 38.2413 16.9733 4.88931 -1.11801
lowerback -15.2559 -0.411637 0.876989
upperback -5.92283 -0.73698 2.35867
thorax 2.30102 -0.347755 1.8505
lowerneck -4.53199 -0.837153 -1.16829
upperneck 10.5013 -0.908125 -1.09765
head 4.25497 -0.54589 -0.206805
rclavicle 2.10712e-014 -2.46493e-014
rhumerus -44.9129 -35.1866 -59.2503
rradius 15.3151
rwrist 21.4625
rhand -18.4143 -35.5294
rfingers 7.12502
rthumb 7.8705 -425.363
lclavicle 2.10712e-014 -2.46493e-014
lhumerus -34.9755 3.0069 87.1497
lradius 26.4281
lwrist 1.32197
lhand -21.7406 -18.0999
lfingers 7.12502
lthumb 4.65923 11.8289
rfemur -31.6721 -2.60552 26.7721
rtibia 35.6677
rfoot -20.6147 2.24272
rtoes -6.92139
lfemur -37.8535 2.8447 -18.3499
ltibia 74.0009
lfoot -2.20317 0.712948
ltoes -5.60494
387
root 0.615053 16.1941 38.4429 16.941 4.48512 -0.978098
lowerback -15.1286 -0.324462 0.580134
upperback -6.01137 -0.571425 2.22989
thorax 2.13738 -0.263007 1.91155
lowerneck -4.00733 -0.870459 -1.18178
upperneck 10.3627 -0.98207 -0.906796
head 4.10136 -0.57184 -0.140516
rclavicle 1.01132e-014 1.19271e-014
rhumerus -41.9124 -32.1566 -63.6452
rradius 16.7151
rwrist 18.0783
rhand -17.3165 -36.5899
rfingers 7.12502
rthumb 8.9299 -426.381
lclavicle 1.01132e-014 1.19271e-014
lhumerus -35.8558 4.60723 86.228
lradius 24.2893
lwrist -0.88856
lhand -20.7172 -17.6757
lfingers 7.12502
lthumb 5.64738 12.2291
rfemur -30.6129 -2.38444 26.5447
rtibia 35.1065
rfoot -20.913 2.92658
rtoes -3.78473
lfemur -39.1079 3.21655 -18.7493
ltibia 73.3253
lfoot -3.74999 1.42026
ltoes -2.9093
388
root 0.62956 16.1894 38.6481 16.8562 4.72369 -1.3039
lowerback -15.309 -0.30255 1.08008
upperback -5.88855 -0.621167 2.26108
thorax 2.35908 -0.293312 1.65259
lowerneck -3.88435 -0.846057 -1.17192
upperneck 10.2366 -0.956039 -0.878846
head 4.03184 -0.556251 -0.130376
rclavicle -1.08089e-014 1.86858e-014
rhumerus -38.9658 -29.2641 -67.3683
rradius 18.0992
rwrist 15.4224
rhand -15.8326 -37.3923
rfingers 7.12502
rthumb 10.3617 -427.117
lclavicle -1.08089e-014 1.86858e-014
lhumerus -36.5042 6.52733 85.1912
lradius 22.1948
lwrist -3.27833
lhand -19.5583 -17.3366
lfingers 7.12502
lthumb 6.76619 12.5353
rfemur -29.4106 -3.47557 27.1541
rtibia 34.8049
rfoot -22.004 2.70185
rtoes -8.17292
lfemur -40.2841 3.0422 -18.5643
ltibia 72.5249
lfoot -5.27367 2.15273
ltoes -0.840518
389
root 0.646902 16.178 38.8544 16.998 4.97616 -1.92626
lowerback -15.7705 -0.264809 1.86218
upperback -5.8082 -0.706086 2.39427
thorax 2.68197 -0.340561 1.3345
lowerneck -3.96683 -0.795893 -1.0815
upperneck 10.3161 -0.885654 -0.955467
head 4.07559 -0.522101 -0.169317
rclavicle 6.21202e-016 2.98177e-014
rhumerus -36.4638 -25.715 -70.9289
rradius 19.7715
rwrist 11.1231
rhand -15.9923 -36.4212
rfingers 7.12502
rthumb 10.2076 -426.154
lclavicle 6.21202e-016 2.98177e-014
lhumerus -37.3184 8.49205 84.0091
lradius 20.3165
lwrist -6.08597
lhand -18.7137 -16.6943
lfingers 7.12502
lthumb 7.58152 13.1498
rfemur -28.5867 -4.44703 28.0286
rtibia 34.5545
rfoot -22.8577 3.13719
rtoes -8.79322
lfemur -41.6632 2.93131 -18.0519
ltibia 71.5701
lfoot -6.2631 2.70127
ltoes -1.72806
390
root 0.648303 16.1616 39.0295 17.0528 4.27353 -0.620851
lowerback -15.1849 -0.303455 0.437439
upperback -5.9649 -0.516469 1.94342
thorax 2.21372 -0.237452 1.70078
lowerneck -3.80983 -0.792459 -0.955623
upperneck 10.36 -0.889126 -0.990601
head 4.05918 -0.520388 -0.202716
rclavicle 4.44781e-015 -1.35174e-014
rhumerus -34.8891 -22.0641 -74.0397
rradius 21.78
rwrist 5.76822
rhand -17.6393 -34.9877
rfingers 7.12502
rthumb 8.61842 -424.792
lclavicle 4.44781e-015 -1.35174e-014
lhumerus -38.3697 10.5405 82.4083
lradius 18.2025
lwrist -9.79653
lhand -18.3002 -16.3968
lfingers 7.12502
lthumb 7.98065 13.4326
rfemur -27.805 -4.71011 26.5535
rtibia 34.3858
rfoot -23.3343 3.29607
rtoes -9.32874
lfemur -42.6128 2.92996 -19.8419
ltibia 70.2214
lfoot -6.82555 3.63357
ltoes -2.61299
391
root 0.648344 16.1502 39.2337 17.1472 3.92897 -0.679038
lowerback -15.0497 -0.12861 0.491696
upperback -6.13286 -0.28398 1.81284
thorax 1.95797 -0.122739 1.57182
lowerneck -3.82968 -0.832472 -0.813189
upperneck 10.5735 -0.945331 -1.05073
head 4.1384 -0.546456 -0.251857
rclavicle 7.0817e-016 2.0276e-014
rhumerus -33.6415 -19.1767 -76.3655
rradius 23.6433
rwrist 1.85556
rhand -18.3242 -34.6001
rfingers 7.12502
rthumb 7.95741 -424.43
lclavicle 7.0817e-016 2.0276e-014
lhumerus -39.6306 13.1986 80.0845
lradius 16.0907
lwrist -14.4942
lhand -17.6675 -16.7087
lfingers 7.12502
lthumb 8.59121 13.0965
rfemur -27.078 -5.00656 26.6415
rtibia 34.3219
rfoot -24.1184 3.36984
rtoes -10.9022
lfemur -43.6856 3.20236 -20.0703
ltibia 68.7706
lfoot -7.43801 4.48536
ltoes -2.97844
392
root 0.673431 16.1554 39.4652 17.5119 4.19102 -1.38734
lowerback -16.3038 -0.0462783 1.48192
upperback -5.81847 -0.360396 1.95734
thorax 2.95056 -0.168831 1.15229
lowerneck -4.29344 -0.805436 -0.840235
upperneck 10.6243 -0.894842 -1.1025
head 4.24941 -0.52649 -0.265085
rclavicle 9.82742e-015 -3.97569e-016
rhumerus -31.7034 -16.652 -78.3071
rradius 25.5422
rwrist -0.832034
rhand -17.9647 -34.9302
rfingers 7.12502
rthumb 8.30437 -424.747
lclavicle 9.82742e-015 -3.97569e-016
lhumerus -40.6173 17.255 77.0064
lradius 14.1054
lwrist -20.5965
lhand -17.009 -17.0944
lfingers 7.12502
lthumb 9.22669 12.6837
rfemur -26.6809 -6.4983 27.5811
rtibia 34.3442
rfoot -25.1358 4.93118
rtoes -9.65615
lfemur -44.8986 3.11815 -19.5532
ltibia 67.0722
lfoot -7.97024 5.25627
ltoes -2.89085
393
root 0.666572 16.1481 39.6555 17.7025 3.69037 -1.37672
lowerback -16.5687 0.0320401 1.15141
upperback -5.63997 -0.220172 2.00292
thorax 3.27993 -0.0967457 1.41479
lowerneck -4.6478 -0.78662 -0.992735
upperneck 10.6443 -0.858029 -1.03925
head 4.32907 -0.512497 -0.217223
rclavicle 3.85145e-015 -1.59028e-014
rhumerus -30.1147 -14.3925 -79.8002
rradius 27.6931
rwrist -3.17143
rhand -17.6185 -35.1848
rfingers 7.12502
rthumb 8.63853 -424.988
lclavicle 3.85145e-015 -1.59028e-014
lhumerus -42.2653 21.9621 73.023
lradius 12.3325
lwrist -27.4987
lhand -16.43 -17.1801
lfingers 7.12502
lthumb 9.78533 12.5725
rfemur -26.1905 -6.35785 27.5221
rtibia 34.1933
rfoot -25.2528 5.67566
rtoes -6.78583
lfemur -45.9909 3.49795 -19.8137
ltibia 65.1692
lfoot -8.29434 5.82007
ltoes -2.08346
394
root 0.651106 16.1336 39.8541 17.908 2.79849 -1.11193
lowerback -16.346 0.23306 0.528443
upperback -5.86737 0.157153 1.85538
thorax 2.91409 0.0935933 1.68054
lowerneck -4.45462 -0.809123 -1.04514
upperneck 10.7018 -0.897734 -0.929951
head 4.3118 -0.528811 -0.172534
rclavicle -1.05356e-014 -6.75868e-015
rhumerus -29.3905 -12.2435 -81.0261
rradius 29.8736
rwrist -5.52191
rhand -17.4401 -35.2196
rfingers 7.12502
rthumb 8.81065 -425.016
lclavicle -1.05356e-014 -6.75868e-015
lhumerus -45.1126 25.7307 68.4787
lradius 11.2813
lwrist -33.7566
lhand -15.5353 -17.1577
lfingers 7.12502
lthumb 10.6484 12.5525
rfemur -25.5549 -5.79844 27.11
rtibia 34.0473
rfoot -25.4084 5.76033
rtoes -5.06713
lfemur -46.899 4.07107 -20.3965
ltibia 63.0181
lfoot -8.59217 6.46139
ltoes -1.71778
395
root 0.679996 16.1231 40.065 18.1481 2.83693 -1.03765
lowerback -16.5285 0.262514 0.859613
upperback -5.98548 0.150185 1.69251
thorax 2.8873 0.0864471 1.32108
lowerneck -4.12272 -0.749901 -0.962251
upperneck 10.4988 -0.829368 -0.952228
head 4.17145 -0.490891 -0.188344
rclavicle -4.46023e-015 -7.95139e-016
rhumerus -28.4194 -9.97964 -82.1756
rradius 31.6753
rwrist -7.72888
rhand -17.2845 -35.1395
rfingers 7.12502
rthumb 8.96086 -424.929
lclavicle -4.46023e-015 -7.95139e-016
lhumerus -48.6611 29.8231 62.837
lradius 10.4421
lwrist -40.9009
lhand -14.9266 -17.6432
lfingers 7.12502
lthumb 11.2355 12.0359
rfemur -24.8279 -7.42419 27.1133
rtibia 33.8564
rfoot -26.0547 7.35833
rtoes -2.39383
lfemur -47.592 3.7775 -20.7183
ltibia 60.6365
lfoot -8.80495 7.3426
ltoes -3.78918
396
root 0.684412 16.1117 40.2441 18.1201 2.43303 -1.05555
lowerback -15.9028 0.333989 0.779446
upperback -6.17878 0.272393 1.66946
thorax 2.35006 0.147938 1.35775
lowerneck -3.80481 -0.658722 -0.804187
upperneck 10.3603 -0.710523 -1.09057
head 4.05727 -0.430755 -0.254251
rclavicle -4.53478e-015 -1.39149e-014
rhumerus -27.4532 -7.88784 -83.0872
rradius 33.1948
rwrist -9.72654
rhand -17.1702 -34.9543
rfingers 7.12502
rthumb 9.07107 -424.739
lclavicle -4.53478e-015 -1.39149e-014
lhumerus -49.9463 29.5527 62.3184
lradius 9.7356
lwrist -41.5322
lhand -14.9651 -17.0383
lfingers 7.12502
lthumb 11.1984 12.6428
rfemur -24.0924 -7.40476 27.0152
rtibia 33.7314
rfoot -26.1864 8.13171
rtoes 0.969202
lfemur -48.0957 3.97811 -20.9219
ltibia 58.0178
lfoot -8.71093 8.19483
ltoes -7.1249
